<svg xmlns="http://www.w3.org/2000/svg" viewBox="0 0 400 260"><defs><linearGradient id="bg" x1="0" y1="0" x2="1" y2="1"><stop offset="0" stop-color="#0b1233"/><stop offset="1" stop-color="#26175a"/></linearGradient></defs><rect width="400" height="260" fill="url(#bg)"/><circle cx="170" cy="247" r="0.8" fill="#fff" opacity="0.7"/><circle cx="338" cy="17" r="0.8" fill="#fff" opacity="0.9"/><circle cx="53" cy="98" r="1.4" fill="#fff" opacity="0.4"/><circle cx="264" cy="59" r="0.8" fill="#fff" opacity="0.4"/><circle cx="227" cy="112" r="0.8" fill="#fff" opacity="0.4"/><circle cx="51" cy="146" r="1" fill="#fff" opacity="0.4"/><circle cx="294" cy="36" r="0.8" fill="#fff" opacity="0.9"/><circle cx="326" cy="154" r="0.8" fill="#fff" opacity="0.9"/><circle cx="304" cy="106" r="0.8" fill="#fff" opacity="0.4"/><circle cx="28" cy="147" r="0.8" fill="#fff" opacity="0.7"/><circle cx="219" cy="41" r="1.4" fill="#fff" opacity="0.4"/><circle cx="297" cy="83" r="1.4" fill="#fff" opacity="0.9"/><circle cx="97" cy="31" r="1.4" fill="#fff" opacity="0.9"/><circle cx="332" cy="53" r="1" fill="#fff" opacity="0.4"/><circle cx="285" cy="187" r="0.8" fill="#fff" opacity="0.9"/><circle cx="35" cy="163" r="0.8" fill="#fff" opacity="0.7"/><circle cx="353" cy="141" r="1" fill="#fff" opacity="0.7"/><circle cx="243" cy="154" r="1" fill="#fff" opacity="0.7"/><circle cx="158" cy="68" r="0.8" fill="#fff" opacity="0.9"/><circle cx="129" cy="25" r="1.4" fill="#fff" opacity="0.7"/><circle cx="273" cy="131" r="1" fill="#fff" opacity="0.9"/><circle cx="234" cy="78" r="1.4" fill="#fff" opacity="0.4"/><circle cx="65" cy="136" r="1" fill="#fff" opacity="0.4"/><circle cx="392" cy="92" r="0.8" fill="#fff" opacity="0.7"/><circle cx="220" cy="15" r="1.4" fill="#fff" opacity="0.4"/><circle cx="290" cy="151" r="1" fill="#fff" opacity="0.7"/><circle cx="360" cy="94" r="1.4" fill="#fff" opacity="0.7"/><circle cx="301" cy="209" r="1" fill="#fff" opacity="0.4"/><circle cx="52" cy="246" r="1" fill="#fff" opacity="0.7"/><circle cx="361" cy="175" r="0.8" fill="#fff" opacity="0.4"/><circle cx="379" cy="184" r="1" fill="#fff" opacity="0.9"/><circle cx="300" cy="179" r="1" fill="#fff" opacity="0.7"/><circle cx="371" cy="103" r="1.4" fill="#fff" opacity="0.7"/><circle cx="16" cy="245" r="1" fill="#fff" opacity="0.7"/><circle cx="91" cy="161" r="0.8" fill="#fff" opacity="0.7"/><circle cx="35" cy="60" r="1" fill="#fff" opacity="0.4"/><circle cx="383" cy="68" r="1" fill="#fff" opacity="0.7"/><circle cx="259" cy="25" r="0.8" fill="#fff" opacity="0.7"/><circle cx="210" cy="145" r="1" fill="#fff" opacity="0.4"/><circle cx="225" cy="226" r="1.4" fill="#fff" opacity="0.7"/><circle cx="366" cy="111" r="1" fill="#fff" opacity="0.9"/><circle cx="199" cy="250" r="0.8" fill="#fff" opacity="0.4"/><circle cx="47" cy="50" r="0.8" fill="#fff" opacity="0.4"/><circle cx="342" cy="64" r="0.8" fill="#fff" opacity="0.7"/><circle cx="306" cy="51" r="1" fill="#fff" opacity="0.7"/><defs><radialGradient id="p" cx=".35" cy=".35" r=".8"><stop offset="0" stop-color="#f1e0b0"/><stop offset="1" stop-color="#b89a55"/></radialGradient><clipPath id="c"><circle cx="200" cy="130" r="56"/></clipPath></defs><circle cx="200" cy="130" r="56" fill="url(#p)"/><g clip-path="url(#c)"><rect x="120" y="66" width="160" height="9" fill="#d6b872" opacity=".55"/><rect x="120" y="84" width="160" height="12" fill="#f4e6bd" opacity=".55"/><rect x="120" y="102" width="160" height="15" fill="#c7a55e" opacity=".55"/><rect x="120" y="120" width="160" height="9" fill="#efd9a0" opacity=".55"/></g><ellipse cx="200" cy="130" rx="125" ry="20" fill="none" stroke="#e3cf9a" stroke-width="9" opacity=".8" transform="rotate(-18 200 130)"/></svg>